<?xml version="1.0" encoding="utf-8"?>
<!-- Svg Vector Icons : http://www.onlinewebfonts.com/icon -->
<!DOCTYPE svg PUBLIC "-//W3C//DTD SVG 1.1//EN" "http://www.w3.org/Graphics/SVG/1.1/DTD/svg11.dtd">
<svg version="1.1" xmlns="http://www.w3.org/2000/svg" xmlns:xlink="http://www.w3.org/1999/xlink" x="0px" y="0px" viewBox="0 0 256 256" enable-background="new 0 0 256 256" xml:space="preserve">
<metadata> Svg Vector Icons : http://www.onlinewebfonts.com/icon </metadata>
<g><g><g><path fill="#000000" d="M49,10.5c-18.3,3.3-32.8,16.6-37.8,34.6L10,49.8v78.3v78.3l1.2,4.6c4.6,16.5,17.3,29.3,33.9,33.9l4.6,1.2H128h78.3l4.6-1.2c2.5-0.7,6.7-2.4,9.2-3.6c12-6,21-17.1,24.6-30.3l1.2-4.6v-78.3V49.8l-1.2-4.6c-4.6-16.5-17.3-29.3-33.9-33.9l-4.6-1.2L129.4,10C66.3,9.9,51.9,10,49,10.5z M202,19.5c5.9,0.6,10,1.8,14.7,4.2c6.7,3.6,12,8.9,15.6,15.6c2.5,4.7,3.7,8.8,4.2,14.7c0.6,6.7,0.6,141.3,0,148c-0.6,5.9-1.8,10-4.2,14.7c-3.6,6.7-8.9,12-15.6,15.6c-4.7,2.5-8.8,3.7-14.7,4.2c-6.7,0.6-141.3,0.6-148,0c-5.9-0.6-10-1.8-14.7-4.2c-6.7-3.6-12-8.9-15.6-15.6c-2.5-4.7-3.7-8.8-4.2-14.7c-0.6-6.7-0.6-141.3,0-148c0.6-5.9,1.8-10,4.2-14.7c6-11.2,17-18.6,29.5-19.8C59.1,19,196.1,19,202,19.5z"/><path fill="#000000" d="M61.5,48.2c-1.4,0.3-4.2,1.3-6.2,2.3C47.5,54.3,43,61.3,43,70c0,14.1,12.6,24.3,27.3,22.2c13.3-1.9,21.8-13.6,19.2-26.2c-1.8-8.4-7.4-14.6-15.5-17.1C71.2,48,64.7,47.6,61.5,48.2z M69.3,57.4c1.6,0.2,3.6,0.8,4.2,1.2c7.8,4,9.5,14.5,3.3,20.7c-2.9,3-8.7,4.4-13.4,3.5c-3.6-0.7-5.6-1.8-7.8-4.2c-2.4-2.6-3.1-4.8-3.1-8.9c0-6.4,4.2-11.1,10.9-12.2c1.4-0.2,2.6-0.4,2.7-0.5C66.3,57,67.7,57.2,69.3,57.4z"/><path fill="#000000" d="M46.4,95.1c-0.6,0.1-1.5,0.7-2.1,1.3l-1.1,1.2v56.5v56.5l1.1,1.1l1.1,1.1l20.7,0.1l20.7,0.1l1.5-1.4l1.5-1.3l0.1-55.8c0.1-44,0-56-0.5-56.9c-0.3-0.6-1.3-1.5-2.2-1.9c-1.5-0.7-3.4-0.8-20.8-0.8C56,94.9,46.9,95,46.4,95.1z M80.9,154.1v49.6H66.6H52.3v-49.6v-49.6h14.3h14.3V154.1z"/><path fill="#000000" d="M98.6,95.1c-0.6,0.1-1.6,0.8-2.3,1.6L95,98.1v56.1v56.1l1.3,1.2l1.2,1.3l20.8,0.1l20.7,0.1l1.5-1.4l1.5-1.3l0.2-33.9c0.2-22.8,0.4-34.3,0.8-35.3c2.6-7.2,8.4-9.9,16.1-7.5c1.9,0.6,4.1,2.9,5.4,5.7l1.1,2.3l0.2,34.3l0.2,34.4l1.5,1.3l1.5,1.4l20.7-0.1l20.7-0.1l1.1-1.1l1.1-1.1v-36.8c0-40.3,0.1-39.1-2.9-48.1c-5.7-17.5-19.6-28.8-37.8-30.5c-5.5-0.5-12.5,0-17,1.2c-3.2,0.9-8.9,3.4-10.9,4.8c-0.7,0.6-1.4,1-1.6,1c-0.1,0-0.3-1-0.5-2.2c-0.2-1.7-0.6-2.6-1.7-3.6L139,95l-19.7,0C108.5,94.9,99.1,95,98.6,95.1z M132.7,110.3l0.2,5.8l1.5,1.3c1.1,1,1.9,1.3,3.3,1.3c1.6,0,2-0.3,5.1-3.7c6.7-7.5,13.9-10.6,24.4-10.6c16.1,0,28.3,8.5,33.4,23.4c2.8,8.1,2.8,8,3,43.4l0.2,32.5h-14.3h-14.4v-30.7c0-20.9-0.2-31.5-0.5-33.1c-2.4-11-10.7-17.2-22.3-16.4c-5,0.3-8.5,1.7-11.6,4.5c-3.3,3-5.1,5.8-6.7,10.3l-1.2,3.7l-0.1,30.8l-0.1,30.9h-14h-14.1v-49.6v-49.6h14h14L132.7,110.3z"/></g></g></g>
</svg>